<svg width="25" height="25" viewBox="0 0 25 25" fill="none" xmlns="http://www.w3.org/2000/svg">
<rect width="25" height="25" rx="5" fill="#4D4837"/>
<path fill-rule="evenodd" clip-rule="evenodd" d="M13.1792 18.603L13.518 18.0205C13.7808 17.5686 13.9122 17.3427 14.1233 17.2178C14.3343 17.0929 14.6 17.0882 15.1315 17.079C15.9161 17.0652 16.4082 17.0162 16.8209 16.8423C17.5866 16.5195 18.1949 15.9005 18.5121 15.1212C18.75 14.5368 18.75 13.796 18.75 12.3142V11.6782C18.75 9.59623 18.75 8.55525 18.2895 7.79054C18.0318 7.36263 17.6783 7.00287 17.2578 6.74065C16.5063 6.27203 15.4834 6.27203 13.4375 6.27203H11.5625C9.51661 6.27203 8.49366 6.27203 7.74219 6.74065C7.32171 7.00287 6.96817 7.36263 6.7105 7.79054C6.25 8.55525 6.25 9.59623 6.25 11.6782V12.3142C6.25 13.796 6.25 14.5368 6.48787 15.1212C6.80504 15.9005 7.4134 16.5195 8.17911 16.8423C8.59181 17.0162 9.08389 17.0652 9.86849 17.079C10.4 17.0882 10.6657 17.0929 10.8767 17.2178C11.0878 17.3428 11.2192 17.5686 11.482 18.0205L11.8208 18.603C12.1228 19.1222 12.8772 19.1222 13.1792 18.603ZM15 12.6322C15.3452 12.6322 15.625 12.3475 15.625 11.9962C15.625 11.6449 15.3452 11.3602 15 11.3602C14.6548 11.3602 14.375 11.6449 14.375 11.9962C14.375 12.3475 14.6548 12.6322 15 12.6322ZM13.125 11.9962C13.125 12.3475 12.8452 12.6322 12.5 12.6322C12.1548 12.6322 11.875 12.3475 11.875 11.9962C11.875 11.6449 12.1548 11.3602 12.5 11.3602C12.8452 11.3602 13.125 11.6449 13.125 11.9962ZM10 12.6322C10.3452 12.6322 10.625 12.3475 10.625 11.9962C10.625 11.6449 10.3452 11.3602 10 11.3602C9.65482 11.3602 9.375 11.6449 9.375 11.9962C9.375 12.3475 9.65482 12.6322 10 12.6322Z" fill="#FFF2AF"/>
</svg>
