<svg width="82" height="82" viewBox="0 0 82 82" fill="none" xmlns="http://www.w3.org/2000/svg">
<path d="M66.3252 15.5954L59.0989 22.8524C63.9421 27.6981 66.625 34.1427 66.625 41C66.625 55.1347 55.1348 66.625 41 66.625V61.5L30.75 71.75L41 82V76.875C60.7799 76.875 76.875 60.7799 76.875 41C76.875 31.4009 73.1312 22.3809 66.3252 15.5954Z" fill="white"/>
<path d="M51.25 10.25L41 0V5.125C21.2201 5.125 5.125 21.2201 5.125 41C5.125 50.5991 8.86881 59.6191 15.6748 66.4046L22.9011 59.1476C18.0579 54.3019 15.375 47.8573 15.375 41C15.375 26.8652 26.8652 15.375 41 15.375V20.5L51.25 10.25Z" fill="white"/>
<path d="M46 31H31C30.337 31 29.7011 31.2634 29.2322 31.7322C28.7634 32.2011 28.5 32.837 28.5 33.5V43.5C28.5 44.163 28.7634 44.7989 29.2322 45.2678C29.7011 45.7366 30.337 46 31 46H46C46.663 46 47.2989 45.7366 47.7678 45.2678C48.2366 44.7989 48.5 44.163 48.5 43.5V33.5C48.5 32.837 48.2366 32.2011 47.7678 31.7322C47.2989 31.2634 46.663 31 46 31ZM38.5 41C38.0055 41 37.5222 40.8534 37.1111 40.5787C36.7 40.304 36.3795 39.9135 36.1903 39.4567C36.0011 38.9999 35.9516 38.4972 36.048 38.0123C36.1445 37.5273 36.3826 37.0819 36.7322 36.7322C37.0819 36.3826 37.5273 36.1445 38.0123 36.048C38.4972 35.9516 38.9999 36.0011 39.4567 36.1903C39.9135 36.3795 40.304 36.7 40.5787 37.1111C40.8534 37.5222 41 38.0055 41 38.5C41 39.163 40.7366 39.7989 40.2678 40.2678C39.7989 40.7366 39.163 41 38.5 41ZM53.5 38.5V48.5C53.5 49.163 53.2366 49.7989 52.7678 50.2678C52.2989 50.7366 51.663 51 51 51H36C35.337 51 34.7011 50.7366 34.2322 50.2678C33.7634 49.7989 33.5 49.163 33.5 48.5V47.25H46C46.9946 47.25 47.9484 46.8549 48.6516 46.1517C49.3549 45.4484 49.75 44.4946 49.75 43.5V36H51C51.663 36 52.2989 36.2634 52.7678 36.7322C53.2366 37.2011 53.5 37.837 53.5 38.5Z" fill="white"/>
</svg>
