<svg width="28" height="29" viewBox="0 0 28 29" fill="none" xmlns="http://www.w3.org/2000/svg">
<g clip-path="url(#clip0_18_10)">
<path d="M22.6476 6.24854L20.1801 8.72654C21.8339 10.3812 22.75 12.5818 22.75 14.9233C22.75 19.7498 18.8265 23.6733 14 23.6733V21.9233L10.5 25.4233L14 28.9233V27.1733C20.7541 27.1733 26.25 21.6774 26.25 14.9233C26.25 11.6455 24.9716 8.56554 22.6476 6.24854Z" fill="#FAEFC7"/>
<path d="M17.5 4.42334L14 0.92334V2.67334C7.24588 2.67334 1.75 8.16922 1.75 14.9233C1.75 18.2011 3.02838 21.2811 5.35238 23.5981L7.81988 21.1201C6.16613 19.4655 5.25 17.2648 5.25 14.9233C5.25 10.0968 9.1735 6.17334 14 6.17334V7.92334L17.5 4.42334Z" fill="#FAEFC7"/>
</g>
<defs>
<clipPath id="clip0_18_10">
<rect width="28" height="28" fill="white" transform="translate(0 0.92334)"/>
</clipPath>
</defs>
</svg>
