<svg width="116" height="116" viewBox="0 0 116 116" fill="none" xmlns="http://www.w3.org/2000/svg">
<circle cx="58" cy="58" r="50" fill="#8503FF" stroke="black" stroke-width="15"/>
<path d="M54.9984 63.44C54.9984 62.128 55.2864 60.912 55.8624 59.792C56.4384 58.672 57.1424 57.712 57.9744 56.912C58.8064 56.08 59.6384 55.296 60.4704 54.56C61.3024 53.792 62.0064 52.976 62.5824 52.112C63.1584 51.216 63.4464 50.288 63.4464 49.328C63.4464 47.984 62.9824 46.96 62.0544 46.256C61.1264 45.52 59.8784 45.152 58.3104 45.152C56.8064 45.152 55.5104 45.536 54.4224 46.304C53.3344 47.072 52.5504 48.16 52.0704 49.568L47.3184 46.88C48.2144 44.608 49.6544 42.864 51.6384 41.648C53.6544 40.4 55.9264 39.776 58.4544 39.776C61.3024 39.776 63.7664 40.592 65.8464 42.224C67.9264 43.856 68.9664 46.112 68.9664 48.992C68.9664 50.336 68.6784 51.6 68.1024 52.784C67.5264 53.936 66.8224 54.928 65.9904 55.76C65.1584 56.592 64.3264 57.408 63.4944 58.208C62.6624 58.976 61.9584 59.808 61.3824 60.704C60.8064 61.6 60.5184 62.512 60.5184 63.44H54.9984ZM60.3264 73.52C59.6224 74.224 58.7744 74.576 57.7824 74.576C56.7904 74.576 55.9424 74.224 55.2384 73.52C54.5344 72.816 54.1824 71.968 54.1824 70.976C54.1824 69.984 54.5184 69.136 55.1904 68.432C55.8944 67.728 56.7584 67.376 57.7824 67.376C58.7744 67.376 59.6224 67.728 60.3264 68.432C61.0304 69.136 61.3824 69.984 61.3824 70.976C61.3824 71.968 61.0304 72.816 60.3264 73.52Z" fill="white"/>
</svg>
