<svg width="369" height="88" viewBox="0 0 369 88" fill="none" xmlns="http://www.w3.org/2000/svg">
<g filter="url(#filter0_i_1_25)">
<path d="M0 20C0 10.5719 0 5.85786 2.92893 2.92893C5.85786 0 10.5719 0 20 0H349C358.428 0 363.142 0 366.071 2.92893C369 5.85786 369 10.5719 369 20V68C369 77.4281 369 82.1421 366.071 85.0711C363.142 88 358.428 88 349 88H20C10.5719 88 5.85786 88 2.92893 85.0711C0 82.1421 0 77.4281 0 68V20Z" fill="url(#paint0_linear_1_25)"/>
<path d="M0 20C0 10.5719 0 5.85786 2.92893 2.92893C5.85786 0 10.5719 0 20 0H349C358.428 0 363.142 0 366.071 2.92893C369 5.85786 369 10.5719 369 20V68C369 77.4281 369 82.1421 366.071 85.0711C363.142 88 358.428 88 349 88H20C10.5719 88 5.85786 88 2.92893 85.0711C0 82.1421 0 77.4281 0 68V20Z" fill="url(#paint1_radial_1_25)" fill-opacity="0.3"/>
</g>
<path d="M1 20C1 15.2577 1.00212 11.8015 1.3572 9.16053C1.70841 6.54828 2.38834 4.88374 3.63604 3.63604C4.88374 2.38834 6.54828 1.70841 9.16053 1.3572C11.8015 1.00212 15.2577 1 20 1H349C353.742 1 357.198 1.00212 359.839 1.3572C362.452 1.70841 364.116 2.38834 365.364 3.63604L366.071 2.92893L365.364 3.63604C366.612 4.88374 367.292 6.54828 367.643 9.16053C367.998 11.8015 368 15.2577 368 20V68C368 72.7423 367.998 76.1985 367.643 78.8395C367.292 81.4517 366.612 83.1163 365.364 84.364C364.116 85.6117 362.452 86.2916 359.839 86.6428C357.198 86.9979 353.742 87 349 87H20C15.2577 87 11.8015 86.9979 9.16053 86.6428C6.54828 86.2916 4.88374 85.6117 3.63604 84.364C2.38834 83.1163 1.70841 81.4517 1.3572 78.8395C1.00212 76.1985 1 72.7423 1 68V20Z" stroke="white" stroke-opacity="0.2" stroke-width="2"/>
<path d="M1 20C1 15.2577 1.00212 11.8015 1.3572 9.16053C1.70841 6.54828 2.38834 4.88374 3.63604 3.63604C4.88374 2.38834 6.54828 1.70841 9.16053 1.3572C11.8015 1.00212 15.2577 1 20 1H349C353.742 1 357.198 1.00212 359.839 1.3572C362.452 1.70841 364.116 2.38834 365.364 3.63604L366.071 2.92893L365.364 3.63604C366.612 4.88374 367.292 6.54828 367.643 9.16053C367.998 11.8015 368 15.2577 368 20V68C368 72.7423 367.998 76.1985 367.643 78.8395C367.292 81.4517 366.612 83.1163 365.364 84.364C364.116 85.6117 362.452 86.2916 359.839 86.6428C357.198 86.9979 353.742 87 349 87H20C15.2577 87 11.8015 86.9979 9.16053 86.6428C6.54828 86.2916 4.88374 85.6117 3.63604 84.364C2.38834 83.1163 1.70841 81.4517 1.3572 78.8395C1.00212 76.1985 1 72.7423 1 68V20Z" stroke="url(#paint2_radial_1_25)" stroke-opacity="0.4" stroke-width="2"/>
<path d="M66.2385 50.16C65.3745 50.16 64.5372 50.0373 63.7265 49.792C62.9265 49.5467 62.2918 49.2213 61.8225 48.816L62.5425 47.2C63.0012 47.5627 63.5612 47.8613 64.2225 48.096C64.8945 48.32 65.5665 48.432 66.2385 48.432C67.0705 48.432 67.6892 48.2987 68.0945 48.032C68.5105 47.7653 68.7185 47.4133 68.7185 46.976C68.7185 46.656 68.6012 46.3947 68.3665 46.192C68.1425 45.9787 67.8545 45.8133 67.5025 45.696C67.1505 45.5787 66.6705 45.4453 66.0625 45.296C65.2092 45.0933 64.5158 44.8907 63.9825 44.688C63.4598 44.4853 63.0065 44.1707 62.6225 43.744C62.2492 43.3067 62.0625 42.72 62.0625 41.984C62.0625 41.3653 62.2278 40.8053 62.5585 40.304C62.8998 39.792 63.4065 39.3867 64.0785 39.088C64.7612 38.7893 65.5932 38.64 66.5745 38.64C67.2572 38.64 67.9292 38.7253 68.5905 38.896C69.2518 39.0667 69.8225 39.312 70.3025 39.632L69.6465 41.248C69.1558 40.96 68.6438 40.7413 68.1105 40.592C67.5772 40.4427 67.0598 40.368 66.5585 40.368C65.7372 40.368 65.1238 40.5067 64.7185 40.784C64.3238 41.0613 64.1265 41.4293 64.1265 41.888C64.1265 42.208 64.2385 42.4693 64.4625 42.672C64.6972 42.8747 64.9905 43.0347 65.3425 43.152C65.6945 43.2693 66.1745 43.4027 66.7825 43.552C67.6145 43.744 68.2972 43.9467 68.8305 44.16C69.3638 44.3627 69.8172 44.6773 70.1905 45.104C70.5745 45.5307 70.7665 46.1067 70.7665 46.832C70.7665 47.4507 70.5958 48.0107 70.2545 48.512C69.9238 49.0133 69.4172 49.4133 68.7345 49.712C68.0518 50.0107 67.2198 50.16 66.2385 50.16ZM75.7447 40.56H72.0327V38.8H81.5367V40.56H77.8247V50H75.7447V40.56ZM90.5992 47.408H84.9992L83.8952 50H81.7512L86.7912 38.8H88.8392L93.8952 50H91.7192L90.5992 47.408ZM89.9112 45.776L87.7992 40.88L85.7032 45.776H89.9112ZM103.448 50L101.16 46.72C101.064 46.7307 100.92 46.736 100.728 46.736H98.1996V50H96.1196V38.8H100.728C101.698 38.8 102.541 38.96 103.256 39.28C103.981 39.6 104.536 40.0587 104.92 40.656C105.304 41.2533 105.496 41.9627 105.496 42.784C105.496 43.6267 105.288 44.352 104.872 44.96C104.466 45.568 103.88 46.0213 103.112 46.32L105.688 50H103.448ZM103.4 42.784C103.4 42.0693 103.165 41.52 102.696 41.136C102.226 40.752 101.538 40.56 100.632 40.56H98.1996V45.024H100.632C101.538 45.024 102.226 44.832 102.696 44.448C103.165 44.0533 103.4 43.4987 103.4 42.784ZM110.738 40.56H107.026V38.8H116.53V40.56H112.818V50H110.738V40.56ZM134.065 38.8V50H132.353L126.177 42.416V50H124.113V38.8H125.825L132.001 46.384V38.8H134.065ZM143.098 50.16C141.957 50.16 140.928 49.9147 140.01 49.424C139.093 48.9227 138.373 48.2347 137.85 47.36C137.328 46.4747 137.066 45.488 137.066 44.4C137.066 43.312 137.328 42.3307 137.85 41.456C138.373 40.5707 139.093 39.8827 140.01 39.392C140.928 38.8907 141.957 38.64 143.098 38.64C144.24 38.64 145.269 38.8907 146.186 39.392C147.104 39.8827 147.824 40.5653 148.346 41.44C148.869 42.3147 149.13 43.3013 149.13 44.4C149.13 45.4987 148.869 46.4853 148.346 47.36C147.824 48.2347 147.104 48.9227 146.186 49.424C145.269 49.9147 144.24 50.16 143.098 50.16ZM143.098 48.336C143.845 48.336 144.517 48.1707 145.114 47.84C145.712 47.4987 146.181 47.0293 146.522 46.432C146.864 45.824 147.034 45.1467 147.034 44.4C147.034 43.6533 146.864 42.9813 146.522 42.384C146.181 41.776 145.712 41.3067 145.114 40.976C144.517 40.6347 143.845 40.464 143.098 40.464C142.352 40.464 141.68 40.6347 141.082 40.976C140.485 41.3067 140.016 41.776 139.674 42.384C139.333 42.9813 139.162 43.6533 139.162 44.4C139.162 45.1467 139.333 45.824 139.674 46.432C140.016 47.0293 140.485 47.4987 141.082 47.84C141.68 48.1707 142.352 48.336 143.098 48.336ZM168.144 38.8L164.432 50H162.224L159.456 41.712L156.64 50H154.416L150.704 38.8H152.864L155.648 47.312L158.544 38.8H160.464L163.296 47.36L166.16 38.8H168.144ZM178.175 40.544V43.952H183.583V45.712H178.175V50H176.095V38.8H184.271V40.544H178.175ZM192.189 50.16C191.048 50.16 190.018 49.9147 189.101 49.424C188.184 48.9227 187.464 48.2347 186.941 47.36C186.418 46.4747 186.157 45.488 186.157 44.4C186.157 43.312 186.418 42.3307 186.941 41.456C187.464 40.5707 188.184 39.8827 189.101 39.392C190.018 38.8907 191.048 38.64 192.189 38.64C193.33 38.64 194.36 38.8907 195.277 39.392C196.194 39.8827 196.914 40.5653 197.437 41.44C197.96 42.3147 198.221 43.3013 198.221 44.4C198.221 45.4987 197.96 46.4853 197.437 47.36C196.914 48.2347 196.194 48.9227 195.277 49.424C194.36 49.9147 193.33 50.16 192.189 50.16ZM192.189 48.336C192.936 48.336 193.608 48.1707 194.205 47.84C194.802 47.4987 195.272 47.0293 195.613 46.432C195.954 45.824 196.125 45.1467 196.125 44.4C196.125 43.6533 195.954 42.9813 195.613 42.384C195.272 41.776 194.802 41.3067 194.205 40.976C193.608 40.6347 192.936 40.464 192.189 40.464C191.442 40.464 190.77 40.6347 190.173 40.976C189.576 41.3067 189.106 41.776 188.765 42.384C188.424 42.9813 188.253 43.6533 188.253 44.4C188.253 45.1467 188.424 45.824 188.765 46.432C189.106 47.0293 189.576 47.4987 190.173 47.84C190.77 48.1707 191.442 48.336 192.189 48.336ZM208.554 50L206.266 46.72C206.17 46.7307 206.026 46.736 205.834 46.736H203.306V50H201.226V38.8H205.834C206.805 38.8 207.647 38.96 208.362 39.28C209.087 39.6 209.642 40.0587 210.026 40.656C210.41 41.2533 210.602 41.9627 210.602 42.784C210.602 43.6267 210.394 44.352 209.978 44.96C209.573 45.568 208.986 46.0213 208.218 46.32L210.794 50H208.554ZM208.506 42.784C208.506 42.0693 208.271 41.52 207.802 41.136C207.333 40.752 206.645 40.56 205.738 40.56H203.306V45.024H205.738C206.645 45.024 207.333 44.832 207.802 44.448C208.271 44.0533 208.506 43.4987 208.506 42.784ZM224.183 50.16C223.042 50.16 222.012 49.9147 221.095 49.424C220.178 48.9227 219.458 48.2347 218.935 47.36C218.412 46.4747 218.151 45.488 218.151 44.4C218.151 43.312 218.412 42.3307 218.935 41.456C219.458 40.5707 220.178 39.8827 221.095 39.392C222.012 38.8907 223.042 38.64 224.183 38.64C225.324 38.64 226.354 38.8907 227.271 39.392C228.188 39.8827 228.908 40.5653 229.431 41.44C229.954 42.3147 230.215 43.3013 230.215 44.4C230.215 45.4987 229.954 46.4853 229.431 47.36C228.908 48.2347 228.188 48.9227 227.271 49.424C226.354 49.9147 225.324 50.16 224.183 50.16ZM224.183 48.336C224.93 48.336 225.602 48.1707 226.199 47.84C226.796 47.4987 227.266 47.0293 227.607 46.432C227.948 45.824 228.119 45.1467 228.119 44.4C228.119 43.6533 227.948 42.9813 227.607 42.384C227.266 41.776 226.796 41.3067 226.199 40.976C225.602 40.6347 224.93 40.464 224.183 40.464C223.436 40.464 222.764 40.6347 222.167 40.976C221.57 41.3067 221.1 41.776 220.759 42.384C220.418 42.9813 220.247 43.6533 220.247 44.4C220.247 45.1467 220.418 45.824 220.759 46.432C221.1 47.0293 221.57 47.4987 222.167 47.84C222.764 48.1707 223.436 48.336 224.183 48.336ZM243.172 38.8V50H241.46L235.284 42.416V50H233.22V38.8H234.932L241.108 46.384V38.8H243.172ZM246.973 38.8H249.053V48.24H254.909V50H246.973V38.8ZM261.011 46.048V50H258.931V46.08L254.531 38.8H256.755L260.035 44.256L263.347 38.8H265.395L261.011 46.048ZM279.451 48.336C280.635 48.336 281.632 47.8933 282.443 47.008L283.771 48.288C283.259 48.896 282.619 49.36 281.851 49.68C281.094 50 280.256 50.16 279.339 50.16C278.411 50.16 277.547 49.9893 276.747 49.648C275.958 49.3067 275.286 48.8267 274.731 48.208C274.187 47.5893 273.803 46.8747 273.579 46.064H271.755V44.944H273.371C273.36 44.8267 273.355 44.6453 273.355 44.4C273.355 44.1547 273.36 43.9733 273.371 43.856H271.755V42.736H273.579C273.803 41.9253 274.187 41.2107 274.731 40.592C275.286 39.9733 275.958 39.4933 276.747 39.152C277.547 38.8107 278.411 38.64 279.339 38.64C280.256 38.64 281.094 38.8 281.851 39.12C282.619 39.44 283.259 39.904 283.771 40.512L282.443 41.776C281.632 40.9013 280.635 40.464 279.451 40.464C278.598 40.464 277.846 40.6667 277.195 41.072C276.555 41.4773 276.08 42.032 275.771 42.736H280.363V43.856H275.467C275.446 44.0907 275.435 44.272 275.435 44.4C275.435 44.528 275.446 44.7093 275.467 44.944H280.363V46.064H275.771C276.08 46.768 276.555 47.3227 277.195 47.728C277.846 48.1333 278.598 48.336 279.451 48.336ZM289.823 38.8V50H287.743V40.544H285.375V38.8H289.823ZM296.349 43.136C297.927 43.136 299.095 43.4453 299.853 44.064C300.61 44.672 300.989 45.504 300.989 46.56C300.989 47.232 300.823 47.84 300.493 48.384C300.162 48.928 299.666 49.36 299.005 49.68C298.343 50 297.527 50.16 296.557 50.16C295.757 50.16 294.983 50.048 294.237 49.824C293.49 49.5893 292.861 49.2693 292.349 48.864L293.229 47.248C293.645 47.5893 294.141 47.8613 294.717 48.064C295.303 48.256 295.906 48.352 296.525 48.352C297.261 48.352 297.837 48.2027 298.253 47.904C298.679 47.5947 298.893 47.1733 298.893 46.64C298.893 46.064 298.663 45.632 298.205 45.344C297.757 45.0453 296.983 44.896 295.885 44.896H293.181L293.757 38.8H300.333V40.544H295.517L295.277 43.136H296.349ZM303.34 38.8H305.708L305.308 46.288H303.724L303.34 38.8ZM304.524 50.112C304.151 50.112 303.842 49.9947 303.596 49.76C303.351 49.5147 303.228 49.216 303.228 48.864C303.228 48.512 303.351 48.2187 303.596 47.984C303.842 47.7493 304.151 47.632 304.524 47.632C304.887 47.632 305.186 47.7493 305.42 47.984C305.666 48.2187 305.788 48.512 305.788 48.864C305.788 49.216 305.666 49.5147 305.42 49.76C305.186 49.9947 304.887 50.112 304.524 50.112Z" fill="#4D4837"/>
<defs>
<filter id="filter0_i_1_25" x="0" y="0" width="369" height="92" filterUnits="userSpaceOnUse" color-interpolation-filters="sRGB">
<feFlood flood-opacity="0" result="BackgroundImageFix"/>
<feBlend mode="normal" in="SourceGraphic" in2="BackgroundImageFix" result="shape"/>
<feColorMatrix in="SourceAlpha" type="matrix" values="0 0 0 0 0 0 0 0 0 0 0 0 0 0 0 0 0 0 127 0" result="hardAlpha"/>
<feOffset dy="4"/>
<feGaussianBlur stdDeviation="10.25"/>
<feComposite in2="hardAlpha" operator="arithmetic" k2="-1" k3="1"/>
<feColorMatrix type="matrix" values="0 0 0 0 1 0 0 0 0 0.964812 0 0 0 0 0.837257 0 0 0 1 0"/>
<feBlend mode="normal" in2="shape" result="effect1_innerShadow_1_25"/>
</filter>
<linearGradient id="paint0_linear_1_25" x1="162.738" y1="0" x2="162.738" y2="88" gradientUnits="userSpaceOnUse">
<stop stop-color="#FFF2AF"/>
<stop offset="1" stop-color="#DCC290"/>
</linearGradient>
<radialGradient id="paint1_radial_1_25" cx="0" cy="0" r="1" gradientUnits="userSpaceOnUse" gradientTransform="translate(195.997 18.48) rotate(95.5094) scale(114.047 198.239)">
<stop stop-color="white"/>
<stop offset="1" stop-color="white" stop-opacity="0"/>
</radialGradient>
<radialGradient id="paint2_radial_1_25" cx="0" cy="0" r="1" gradientUnits="userSpaceOnUse" gradientTransform="translate(192.416 6.66202e-06) rotate(91.7108) scale(61.1873 129.785)">
<stop stop-color="white"/>
<stop offset="1" stop-color="white" stop-opacity="0"/>
</radialGradient>
</defs>
</svg>
