<svg width="67" height="67" viewBox="0 0 67 67" fill="none" xmlns="http://www.w3.org/2000/svg">
<g filter="url(#filter0_i_2003_138)">
<path d="M29.4678 4.4418C31.6289 2.06121 35.3711 2.0612 37.5322 4.4418C39.0206 6.08145 41.3537 6.65651 43.4337 5.89639C46.4535 4.79277 49.7671 6.53189 50.5744 9.6441C51.1303 11.7877 52.9289 13.3811 55.1239 13.6746C58.3107 14.1008 60.4365 17.1806 59.705 20.3115C59.2011 22.4679 60.0532 24.7147 61.8603 25.9946C64.484 27.853 64.9351 31.568 62.8324 34.0002C61.3841 35.6755 61.0944 38.0609 62.0997 40.034C63.5593 42.8988 62.2323 46.3979 59.24 47.5744C57.1791 48.3846 55.8141 50.3622 55.7873 52.5765C55.7483 55.7915 52.9472 58.2731 49.751 57.9242C47.5496 57.6839 45.4219 58.8006 44.3691 60.7488C42.8406 63.5774 39.207 64.473 36.539 62.6788C34.7015 61.443 32.2985 61.443 30.461 62.6788C27.793 64.473 24.1594 63.5774 22.6309 60.7488C21.5781 58.8006 19.4504 57.6839 17.249 57.9242C14.0528 58.2731 11.2517 55.7915 11.2127 52.5765C11.1859 50.3622 9.82086 48.3846 7.75995 47.5744C4.76773 46.3979 3.4407 42.8988 4.90028 40.034C5.90556 38.0609 5.61592 35.6755 4.16764 34.0002C2.06489 31.568 2.51597 27.853 5.1397 25.9946C6.9468 24.7147 7.79889 22.4679 7.29502 20.3115C6.56346 17.1806 8.6893 14.1008 11.8761 13.6746C14.0711 13.3811 15.8697 11.7877 16.4256 9.6441C17.2329 6.53189 20.5465 4.79277 23.5663 5.89639C25.6463 6.65651 27.9794 6.08145 29.4678 4.4418Z" fill="url(#paint0_linear_2003_138)"/>
<path d="M29.4678 4.4418C31.6289 2.06121 35.3711 2.0612 37.5322 4.4418C39.0206 6.08145 41.3537 6.65651 43.4337 5.89639C46.4535 4.79277 49.7671 6.53189 50.5744 9.6441C51.1303 11.7877 52.9289 13.3811 55.1239 13.6746C58.3107 14.1008 60.4365 17.1806 59.705 20.3115C59.2011 22.4679 60.0532 24.7147 61.8603 25.9946C64.484 27.853 64.9351 31.568 62.8324 34.0002C61.3841 35.6755 61.0944 38.0609 62.0997 40.034C63.5593 42.8988 62.2323 46.3979 59.24 47.5744C57.1791 48.3846 55.8141 50.3622 55.7873 52.5765C55.7483 55.7915 52.9472 58.2731 49.751 57.9242C47.5496 57.6839 45.4219 58.8006 44.3691 60.7488C42.8406 63.5774 39.207 64.473 36.539 62.6788C34.7015 61.443 32.2985 61.443 30.461 62.6788C27.793 64.473 24.1594 63.5774 22.6309 60.7488C21.5781 58.8006 19.4504 57.6839 17.249 57.9242C14.0528 58.2731 11.2517 55.7915 11.2127 52.5765C11.1859 50.3622 9.82086 48.3846 7.75995 47.5744C4.76773 46.3979 3.4407 42.8988 4.90028 40.034C5.90556 38.0609 5.61592 35.6755 4.16764 34.0002C2.06489 31.568 2.51597 27.853 5.1397 25.9946C6.9468 24.7147 7.79889 22.4679 7.29502 20.3115C6.56346 17.1806 8.6893 14.1008 11.8761 13.6746C14.0711 13.3811 15.8697 11.7877 16.4256 9.6441C17.2329 6.53189 20.5465 4.79277 23.5663 5.89639C25.6463 6.65651 27.9794 6.08145 29.4678 4.4418Z" fill="url(#paint1_radial_2003_138)" fill-opacity="0.3"/>
</g>
<path d="M30.2082 5.11395C31.9725 3.17049 35.0275 3.17049 36.7918 5.11395C38.5535 7.05468 41.3151 7.73533 43.7769 6.83563C46.2423 5.93467 48.9474 7.35444 49.6064 9.89517C50.2644 12.4323 52.3933 14.3184 54.9913 14.6658C57.593 15.0137 59.3284 17.528 58.7312 20.084C58.1348 22.6363 59.1434 25.2957 61.2823 26.8107C63.4242 28.3278 63.7925 31.3606 62.0759 33.3462C60.3616 35.3291 60.0188 38.1525 61.2087 40.488C62.4003 42.8267 61.3169 45.6833 58.8741 46.6437C56.4348 47.6028 54.8191 49.9435 54.7874 52.5644C54.7556 55.189 52.4688 57.2149 49.8595 56.9301C47.2539 56.6457 44.7355 57.9675 43.4894 60.2734C42.2415 62.5826 39.2752 63.3138 37.0971 61.849C34.9221 60.3863 32.0779 60.3863 29.9029 61.849C27.7248 63.3138 24.7585 62.5826 23.5106 60.2734C22.2645 57.9675 19.7461 56.6457 17.1405 56.9301C14.5312 57.2149 12.2444 55.189 12.2126 52.5644C12.1809 49.9435 10.5652 47.6028 8.12586 46.6437C5.68309 45.6833 4.59974 42.8267 5.7913 40.488C6.98118 38.1525 6.63836 35.3291 4.92413 33.3462C3.2075 31.3606 3.57575 28.3278 5.71769 26.8107C7.85663 25.2957 8.86519 22.6363 8.26879 20.084C7.67156 17.528 9.40704 15.0137 12.0087 14.6658C14.6067 14.3184 16.7356 12.4323 17.3936 9.89517C18.0526 7.35444 20.7577 5.93467 23.2231 6.83563C25.6849 7.73533 28.4465 7.05468 30.2082 5.11395Z" stroke="white" stroke-opacity="0.2" stroke-width="2"/>
<path d="M30.2082 5.11395C31.9725 3.17049 35.0275 3.17049 36.7918 5.11395C38.5535 7.05468 41.3151 7.73533 43.7769 6.83563C46.2423 5.93467 48.9474 7.35444 49.6064 9.89517C50.2644 12.4323 52.3933 14.3184 54.9913 14.6658C57.593 15.0137 59.3284 17.528 58.7312 20.084C58.1348 22.6363 59.1434 25.2957 61.2823 26.8107C63.4242 28.3278 63.7925 31.3606 62.0759 33.3462C60.3616 35.3291 60.0188 38.1525 61.2087 40.488C62.4003 42.8267 61.3169 45.6833 58.8741 46.6437C56.4348 47.6028 54.8191 49.9435 54.7874 52.5644C54.7556 55.189 52.4688 57.2149 49.8595 56.9301C47.2539 56.6457 44.7355 57.9675 43.4894 60.2734C42.2415 62.5826 39.2752 63.3138 37.0971 61.849C34.9221 60.3863 32.0779 60.3863 29.9029 61.849C27.7248 63.3138 24.7585 62.5826 23.5106 60.2734C22.2645 57.9675 19.7461 56.6457 17.1405 56.9301C14.5312 57.2149 12.2444 55.189 12.2126 52.5644C12.1809 49.9435 10.5652 47.6028 8.12586 46.6437C5.68309 45.6833 4.59974 42.8267 5.7913 40.488C6.98118 38.1525 6.63836 35.3291 4.92413 33.3462C3.2075 31.3606 3.57575 28.3278 5.71769 26.8107C7.85663 25.2957 8.86519 22.6363 8.26879 20.084C7.67156 17.528 9.40704 15.0137 12.0087 14.6658C14.6067 14.3184 16.7356 12.4323 17.3936 9.89517C18.0526 7.35444 20.7577 5.93467 23.2231 6.83563C25.6849 7.73533 28.4465 7.05468 30.2082 5.11395Z" stroke="url(#paint2_radial_2003_138)" stroke-opacity="0.4" stroke-width="2"/>
<path d="M20.8808 46.2775L16.1633 37.009L18.5695 35.7843L19.3407 37.2993L19.4298 37.254C19.4298 37.254 19.3246 35.0633 21.3744 34.02C23.9589 32.7046 25.5337 34.035 26.6224 36.1738L29.5255 41.8775L27.0301 43.1476L24.3992 37.9787C23.5827 36.3745 22.7742 35.8883 21.6156 36.478C20.2788 37.1584 19.9741 38.3234 20.9267 40.1949L23.3762 45.0074L20.8808 46.2775ZM27.9716 36.8336C26.5926 34.1244 27.0631 31.1246 30.111 29.5733C33.1589 28.0219 35.6828 29.4976 37.0618 32.2068C37.1707 32.4207 37.3162 32.7506 37.3162 32.7506L30.7569 36.0892C31.5896 37.4607 32.74 38.2216 34.2372 37.4596C35.7522 36.6884 35.2938 35.1264 35.2938 35.1264L37.7892 33.8563C37.7892 33.8563 38.9328 37.426 35.1007 39.3765C31.9814 40.9641 29.3505 39.5429 27.9716 36.8336ZM31.0635 31.4448C29.8337 32.0708 29.645 33.1991 30.0117 34.4487L33.9508 32.4438C33.2098 31.3847 32.2934 30.8188 31.0635 31.4448ZM47.7493 32.6019L43.1419 27.4739L44.5944 34.2077L41.6891 35.6864L34.8862 27.4794L37.3815 26.2093L41.8414 31.9734L40.3225 24.7124L42.5861 23.5602L47.5629 29.0612L45.5271 22.0633L48.0225 20.7932L50.6546 31.1231L47.7493 32.6019Z" fill="#4D4837"/>
<defs>
<filter id="filter0_i_2003_138" x="2.84123" y="2.65625" width="61.3175" height="64.9502" filterUnits="userSpaceOnUse" color-interpolation-filters="sRGB">
<feFlood flood-opacity="0" result="BackgroundImageFix"/>
<feBlend mode="normal" in="SourceGraphic" in2="BackgroundImageFix" result="shape"/>
<feColorMatrix in="SourceAlpha" type="matrix" values="0 0 0 0 0 0 0 0 0 0 0 0 0 0 0 0 0 0 127 0" result="hardAlpha"/>
<feOffset dy="4"/>
<feGaussianBlur stdDeviation="10.25"/>
<feComposite in2="hardAlpha" operator="arithmetic" k2="-1" k3="1"/>
<feColorMatrix type="matrix" values="0 0 0 0 1 0 0 0 0 0.964812 0 0 0 0 0.837257 0 0 0 1 0"/>
<feBlend mode="normal" in2="shape" result="effect1_innerShadow_2003_138"/>
</filter>
<linearGradient id="paint0_linear_2003_138" x1="29.5487" y1="0" x2="29.5487" y2="67" gradientUnits="userSpaceOnUse">
<stop stop-color="#FFF2AF"/>
<stop offset="1" stop-color="#DCC290"/>
</linearGradient>
<radialGradient id="paint1_radial_2003_138" cx="0" cy="0" r="1" gradientUnits="userSpaceOnUse" gradientTransform="translate(35.5875 14.07) rotate(91.3177) scale(86.4529 36.1521)">
<stop stop-color="white"/>
<stop offset="1" stop-color="white" stop-opacity="0"/>
</radialGradient>
<radialGradient id="paint2_radial_2003_138" cx="0" cy="0" r="1" gradientUnits="userSpaceOnUse" gradientTransform="translate(34.9373 5.07222e-06) rotate(90.4081) scale(46.5662 23.5751)">
<stop stop-color="white"/>
<stop offset="1" stop-color="white" stop-opacity="0"/>
</radialGradient>
</defs>
</svg>
