<svg width="101" height="102" viewBox="0 0 101 102" fill="none" xmlns="http://www.w3.org/2000/svg">
<circle cx="50.5" cy="50.7905" r="50.5" fill="white"/>
<circle cx="50.5" cy="50.7905" r="50.5" fill="url(#paint0_linear_2001_91)"/>
<path d="M15.2738 45.9934V44.3934H18.6738V43.1934H15.2738V41.5934H18.8338C19.5938 36.5934 23.1138 32.7934 29.0738 32.7934C38.2738 32.7934 38.8738 40.9934 38.8738 40.9934H33.2738C33.2738 40.9934 33.0738 36.9934 29.0738 36.9934C26.2338 36.9934 24.8738 38.9134 24.4338 41.5934H29.7138V43.1934H24.2738V44.3934H29.7138V45.9934H24.4338C24.8738 48.6734 26.2338 50.5934 29.0738 50.5934C33.0738 50.5934 33.2738 46.5934 33.2738 46.5934H38.8738C38.8738 46.5934 38.2738 54.7934 29.0738 54.7934C23.1138 54.7934 19.5938 51.0334 18.8338 45.9934H15.2738ZM52.0785 54.1934H40.2785V49.7934L52.0785 33.3934H57.6785V49.7934H62.4785V54.1934H57.6785V61.3934H52.0785V54.1934ZM45.0785 49.7934H52.0785V39.7934L45.0785 49.7934ZM64.2817 54.1934H69.4817C69.8817 55.9534 70.6817 57.7934 73.4817 57.7934C78.0017 57.7934 79.0817 52.9934 79.2817 48.9934H79.0817C79.0817 48.9934 77.2817 51.7934 72.6817 51.7934C67.6817 51.7934 63.6817 48.3934 63.6817 42.7934C63.6817 36.9934 67.4817 32.7934 73.6817 32.7934C81.2817 32.7934 84.6817 37.5934 84.6817 46.3934C84.6817 56.5934 80.4817 61.9934 73.6817 61.9934C68.4817 61.9934 64.8817 59.1934 64.2817 54.1934ZM78.8817 42.3934C78.8817 39.1134 76.7217 36.9934 74.0817 36.9934C71.4417 36.9934 69.2817 38.7934 69.2817 42.3934C69.2817 45.9934 71.4417 47.7934 74.0817 47.7934C76.7217 47.7934 78.8817 45.9934 78.8817 42.3934Z" fill="white"/>
<path fill-rule="evenodd" clip-rule="evenodd" d="M90.6592 46.6996L9.71349 46.6996L9.71349 44.541L90.6592 44.541L90.6592 46.6996Z" fill="#FF0000"/>
<path d="M27.9862 70.1434H28.8862V76.4434H27.9862V70.1434ZM33.1934 71.6284C33.7994 71.6284 34.2794 71.8054 34.6334 72.1594C34.9934 72.5074 35.1734 73.0204 35.1734 73.6984V76.4434H34.3094V73.7974C34.3094 73.3354 34.1984 72.9874 33.9764 72.7534C33.7544 72.5194 33.4364 72.4024 33.0224 72.4024C32.5544 72.4024 32.1854 72.5404 31.9154 72.8164C31.6454 73.0864 31.5104 73.4764 31.5104 73.9864V76.4434H30.6464V71.6734H31.4744V72.3934C31.6484 72.1474 31.8824 71.9584 32.1764 71.8264C32.4764 71.6944 32.8154 71.6284 33.1934 71.6284ZM38.1403 76.4974C37.7503 76.4974 37.3753 76.4464 37.0153 76.3444C36.6553 76.2364 36.3733 76.1014 36.1693 75.9394L36.5293 75.2554C36.7393 75.4054 36.9943 75.5254 37.2943 75.6154C37.5943 75.7054 37.8973 75.7504 38.2033 75.7504C38.9593 75.7504 39.3373 75.5344 39.3373 75.1024C39.3373 74.9584 39.2863 74.8444 39.1843 74.7604C39.0823 74.6764 38.9533 74.6164 38.7973 74.5804C38.6473 74.5384 38.4313 74.4934 38.1493 74.4454C37.7653 74.3854 37.4503 74.3164 37.2043 74.2384C36.9643 74.1604 36.7573 74.0284 36.5833 73.8424C36.4093 73.6564 36.3223 73.3954 36.3223 73.0594C36.3223 72.6274 36.5023 72.2824 36.8623 72.0244C37.2223 71.7604 37.7053 71.6284 38.3113 71.6284C38.6293 71.6284 38.9473 71.6674 39.2653 71.7454C39.5833 71.8234 39.8443 71.9284 40.0483 72.0604L39.6793 72.7444C39.2893 72.4924 38.8303 72.3664 38.3023 72.3664C37.9363 72.3664 37.6573 72.4264 37.4653 72.5464C37.2733 72.6664 37.1773 72.8254 37.1773 73.0234C37.1773 73.1794 37.2313 73.3024 37.3393 73.3924C37.4473 73.4824 37.5793 73.5484 37.7353 73.5904C37.8973 73.6324 38.1223 73.6804 38.4103 73.7344C38.7943 73.8004 39.1033 73.8724 39.3373 73.9504C39.5773 74.0224 39.7813 74.1484 39.9493 74.3284C40.1173 74.5084 40.2013 74.7604 40.2013 75.0844C40.2013 75.5164 40.0153 75.8614 39.6433 76.1194C39.2773 76.3714 38.7763 76.4974 38.1403 76.4974ZM43.9631 76.1644C43.8371 76.2724 43.6811 76.3564 43.4951 76.4164C43.3091 76.4704 43.1171 76.4974 42.9191 76.4974C42.4391 76.4974 42.0671 76.3684 41.8031 76.1104C41.5391 75.8524 41.4071 75.4834 41.4071 75.0034V72.3844H40.5971V71.6734H41.4071V70.6294H42.2711V71.6734H43.6391V72.3844H42.2711V74.9674C42.2711 75.2254 42.3341 75.4234 42.4601 75.5614C42.5921 75.6994 42.7781 75.7684 43.0181 75.7684C43.2821 75.7684 43.5071 75.6934 43.6931 75.5434L43.9631 76.1644ZM49.1605 74.0854C49.1605 74.1514 49.1545 74.2384 49.1425 74.3464H45.2725C45.3265 74.7664 45.5095 75.1054 45.8215 75.3634C46.1395 75.6154 46.5325 75.7414 47.0005 75.7414C47.5705 75.7414 48.0295 75.5494 48.3775 75.1654L48.8545 75.7234C48.6385 75.9754 48.3685 76.1674 48.0445 76.2994C47.7265 76.4314 47.3695 76.4974 46.9735 76.4974C46.4695 76.4974 46.0225 76.3954 45.6325 76.1914C45.2425 75.9814 44.9395 75.6904 44.7235 75.3184C44.5135 74.9464 44.4085 74.5264 44.4085 74.0584C44.4085 73.5964 44.5105 73.1794 44.7145 72.8074C44.9245 72.4354 45.2095 72.1474 45.5695 71.9434C45.9355 71.7334 46.3465 71.6284 46.8025 71.6284C47.2585 71.6284 47.6635 71.7334 48.0175 71.9434C48.3775 72.1474 48.6565 72.4354 48.8545 72.8074C49.0585 73.1794 49.1605 73.6054 49.1605 74.0854ZM46.8025 72.3574C46.3885 72.3574 46.0405 72.4834 45.7585 72.7354C45.4825 72.9874 45.3205 73.3174 45.2725 73.7254H48.3325C48.2845 73.3234 48.1195 72.9964 47.8375 72.7444C47.5615 72.4864 47.2165 72.3574 46.8025 72.3574ZM51.9654 71.6284C52.6254 71.6284 53.1294 71.7904 53.4774 72.1144C53.8314 72.4384 54.0084 72.9214 54.0084 73.5634V76.4434H53.1894V75.8134C53.0454 76.0354 52.8384 76.2064 52.5684 76.3264C52.3044 76.4404 51.9894 76.4974 51.6234 76.4974C51.0894 76.4974 50.6604 76.3684 50.3364 76.1104C50.0184 75.8524 49.8594 75.5134 49.8594 75.0934C49.8594 74.6734 50.0124 74.3374 50.3184 74.0854C50.6244 73.8274 51.1104 73.6984 51.7764 73.6984H53.1444V73.5274C53.1444 73.1554 53.0364 72.8704 52.8204 72.6724C52.6044 72.4744 52.2864 72.3754 51.8664 72.3754C51.5844 72.3754 51.3084 72.4234 51.0384 72.5194C50.7684 72.6094 50.5404 72.7324 50.3544 72.8884L49.9944 72.2404C50.2404 72.0424 50.5344 71.8924 50.8764 71.7904C51.2184 71.6824 51.5814 71.6284 51.9654 71.6284ZM51.7674 75.8314C52.0974 75.8314 52.3824 75.7594 52.6224 75.6154C52.8624 75.4654 53.0364 75.2554 53.1444 74.9854V74.3194H51.8124C51.0804 74.3194 50.7144 74.5654 50.7144 75.0574C50.7144 75.2974 50.8074 75.4864 50.9934 75.6244C51.1794 75.7624 51.4374 75.8314 51.7674 75.8314ZM60.1337 69.7654V76.4434H59.3057V75.6874C59.1137 75.9514 58.8707 76.1524 58.5767 76.2904C58.2827 76.4284 57.9587 76.4974 57.6047 76.4974C57.1427 76.4974 56.7287 76.3954 56.3627 76.1914C55.9967 75.9874 55.7087 75.7024 55.4987 75.3364C55.2947 74.9644 55.1927 74.5384 55.1927 74.0584C55.1927 73.5784 55.2947 73.1554 55.4987 72.7894C55.7087 72.4234 55.9967 72.1384 56.3627 71.9344C56.7287 71.7304 57.1427 71.6284 57.6047 71.6284C57.9467 71.6284 58.2617 71.6944 58.5497 71.8264C58.8377 71.9524 59.0777 72.1414 59.2697 72.3934V69.7654H60.1337ZM57.6767 75.7414C57.9767 75.7414 58.2497 75.6724 58.4957 75.5344C58.7417 75.3904 58.9337 75.1924 59.0717 74.9404C59.2097 74.6824 59.2787 74.3884 59.2787 74.0584C59.2787 73.7284 59.2097 73.4374 59.0717 73.1854C58.9337 72.9274 58.7417 72.7294 58.4957 72.5914C58.2497 72.4534 57.9767 72.3844 57.6767 72.3844C57.3707 72.3844 57.0947 72.4534 56.8487 72.5914C56.6087 72.7294 56.4167 72.9274 56.2727 73.1854C56.1347 73.4374 56.0657 73.7284 56.0657 74.0584C56.0657 74.3884 56.1347 74.6824 56.2727 74.9404C56.4167 75.1924 56.6087 75.3904 56.8487 75.5344C57.0947 75.6724 57.3707 75.7414 57.6767 75.7414ZM66.2284 76.4974C65.7544 76.4974 65.3284 76.3924 64.9504 76.1824C64.5724 75.9724 64.2754 75.6844 64.0594 75.3184C63.8494 74.9464 63.7444 74.5264 63.7444 74.0584C63.7444 73.5904 63.8494 73.1734 64.0594 72.8074C64.2754 72.4354 64.5724 72.1474 64.9504 71.9434C65.3284 71.7334 65.7544 71.6284 66.2284 71.6284C66.7024 71.6284 67.1254 71.7334 67.4974 71.9434C67.8754 72.1474 68.1694 72.4354 68.3794 72.8074C68.5954 73.1734 68.7034 73.5904 68.7034 74.0584C68.7034 74.5264 68.5954 74.9464 68.3794 75.3184C68.1694 75.6844 67.8754 75.9724 67.4974 76.1824C67.1254 76.3924 66.7024 76.4974 66.2284 76.4974ZM66.2284 75.7414C66.5344 75.7414 66.8074 75.6724 67.0474 75.5344C67.2934 75.3904 67.4854 75.1924 67.6234 74.9404C67.7614 74.6824 67.8304 74.3884 67.8304 74.0584C67.8304 73.7284 67.7614 73.4374 67.6234 73.1854C67.4854 72.9274 67.2934 72.7294 67.0474 72.5914C66.8074 72.4534 66.5344 72.3844 66.2284 72.3844C65.9224 72.3844 65.6464 72.4534 65.4004 72.5914C65.1604 72.7294 64.9684 72.9274 64.8244 73.1854C64.6864 73.4374 64.6174 73.7284 64.6174 74.0584C64.6174 74.3884 64.6864 74.6824 64.8244 74.9404C64.9684 75.1924 65.1604 75.3904 65.4004 75.5344C65.6464 75.6724 65.9224 75.7414 66.2284 75.7414ZM71.6443 70.4224C71.1283 70.4224 70.8703 70.7014 70.8703 71.2594V71.6734H72.2563V72.3844H70.8883V76.4434H70.0243V72.3844H69.2143V71.6734H70.0243V71.2504C70.0243 70.7764 70.1623 70.4014 70.4383 70.1254C70.7143 69.8494 71.1013 69.7114 71.5993 69.7114C71.7913 69.7114 71.9713 69.7354 72.1393 69.7834C72.3073 69.8314 72.4513 69.9004 72.5713 69.9904L72.3103 70.6474C72.1123 70.4974 71.8903 70.4224 71.6443 70.4224Z" fill="white"/>
<defs>
<linearGradient id="paint0_linear_2001_91" x1="147.606" y1="3.33334" x2="123.206" y2="86.78" gradientUnits="userSpaceOnUse">
<stop stop-color="#FF7646"/>
<stop offset="1" stop-color="#CB573D"/>
</linearGradient>
</defs>
</svg>
