<svg width="151" height="151" viewBox="0 0 151 151" fill="none" xmlns="http://www.w3.org/2000/svg">
<g filter="url(#filter0_i_2001_68)">
<circle cx="75.8941" cy="75.5004" r="74.9716" fill="url(#paint0_linear_2001_68)"/>
<circle cx="75.8941" cy="75.5004" r="74.9716" fill="url(#paint1_radial_2001_68)" fill-opacity="0.3"/>
</g>
<circle cx="75.8941" cy="75.5004" r="73.9716" stroke="white" stroke-opacity="0.2" stroke-width="2"/>
<circle cx="75.8941" cy="75.5004" r="73.9716" stroke="url(#paint2_radial_2001_68)" stroke-opacity="0.4" stroke-width="2"/>
<path d="M45.2977 99.351V100.395H39.2017V91.995H45.1297V93.039H40.4017V95.619H44.6137V96.639H40.4017V99.351H45.2977ZM50.9881 100.395L49.1521 97.959L47.2921 100.395H46.0081L48.5161 97.143L46.1281 94.035H47.4121L49.1641 96.327L50.9041 94.035H52.1641L49.7641 97.143L52.2961 100.395H50.9881ZM56.1143 100.467C55.4663 100.467 54.8863 100.327 54.3743 100.047C53.8703 99.767 53.4743 99.383 53.1863 98.895C52.8983 98.399 52.7543 97.839 52.7543 97.215C52.7543 96.591 52.8983 96.035 53.1863 95.547C53.4743 95.051 53.8703 94.667 54.3743 94.395C54.8863 94.115 55.4663 93.975 56.1143 93.975C56.6903 93.975 57.2023 94.091 57.6503 94.323C58.1063 94.555 58.4583 94.891 58.7063 95.331L57.8303 95.895C57.6303 95.591 57.3823 95.363 57.0863 95.211C56.7903 95.059 56.4623 94.983 56.1023 94.983C55.6863 94.983 55.3103 95.075 54.9743 95.259C54.6463 95.443 54.3863 95.707 54.1943 96.051C54.0103 96.387 53.9183 96.775 53.9183 97.215C53.9183 97.663 54.0103 98.059 54.1943 98.403C54.3863 98.739 54.6463 98.999 54.9743 99.183C55.3103 99.367 55.6863 99.459 56.1023 99.459C56.4623 99.459 56.7903 99.383 57.0863 99.231C57.3823 99.079 57.6303 98.851 57.8303 98.547L58.7063 99.099C58.4583 99.539 58.1063 99.879 57.6503 100.119C57.2023 100.351 56.6903 100.467 56.1143 100.467ZM60.1157 91.491H61.2677V100.395H60.1157V91.491ZM69.3953 94.035V100.395H68.3033V99.435C68.0713 99.763 67.7633 100.019 67.3793 100.203C67.0033 100.379 66.5913 100.467 66.1433 100.467C65.2953 100.467 64.6273 100.235 64.1393 99.771C63.6513 99.299 63.4073 98.607 63.4073 97.695V94.035H64.5593V97.563C64.5593 98.179 64.7073 98.647 65.0033 98.967C65.2993 99.279 65.7233 99.435 66.2753 99.435C66.8833 99.435 67.3633 99.251 67.7153 98.883C68.0673 98.515 68.2433 97.995 68.2433 97.323V94.035H69.3953ZM73.4124 100.467C72.8924 100.467 72.3924 100.399 71.9124 100.263C71.4324 100.119 71.0564 99.939 70.7844 99.723L71.2644 98.811C71.5444 99.011 71.8844 99.171 72.2844 99.291C72.6844 99.411 73.0884 99.471 73.4964 99.471C74.5044 99.471 75.0084 99.183 75.0084 98.607C75.0084 98.415 74.9404 98.263 74.8044 98.151C74.6684 98.039 74.4964 97.959 74.2884 97.911C74.0884 97.855 73.8004 97.795 73.4244 97.731C72.9124 97.651 72.4924 97.559 72.1644 97.455C71.8444 97.351 71.5684 97.175 71.3364 96.927C71.1044 96.679 70.9884 96.331 70.9884 95.883C70.9884 95.307 71.2284 94.847 71.7084 94.503C72.1884 94.151 72.8324 93.975 73.6404 93.975C74.0644 93.975 74.4884 94.027 74.9124 94.131C75.3364 94.235 75.6844 94.375 75.9564 94.551L75.4644 95.463C74.9444 95.127 74.3324 94.959 73.6284 94.959C73.1404 94.959 72.7684 95.039 72.5124 95.199C72.2564 95.359 72.1284 95.571 72.1284 95.835C72.1284 96.043 72.2004 96.207 72.3444 96.327C72.4884 96.447 72.6644 96.535 72.8724 96.591C73.0884 96.647 73.3884 96.711 73.7724 96.783C74.2844 96.871 74.6964 96.967 75.0084 97.071C75.3284 97.167 75.6004 97.335 75.8244 97.575C76.0484 97.815 76.1604 98.151 76.1604 98.583C76.1604 99.159 75.9124 99.619 75.4164 99.963C74.9284 100.299 74.2604 100.467 73.4124 100.467ZM77.6001 94.035H78.7521V100.395H77.6001V94.035ZM78.1761 92.811C77.9521 92.811 77.7641 92.739 77.6121 92.595C77.4681 92.451 77.3961 92.275 77.3961 92.067C77.3961 91.859 77.4681 91.683 77.6121 91.539C77.7641 91.387 77.9521 91.311 78.1761 91.311C78.4001 91.311 78.5841 91.383 78.7281 91.527C78.8801 91.663 78.9561 91.835 78.9561 92.043C78.9561 92.259 78.8801 92.443 78.7281 92.595C78.5841 92.739 78.4001 92.811 78.1761 92.811ZM86.5796 94.035L83.7956 100.395H82.6196L79.8356 94.035H81.0356L83.2196 99.135L85.4516 94.035H86.5796ZM93.227 97.251C93.227 97.339 93.219 97.455 93.203 97.599H88.043C88.115 98.159 88.359 98.611 88.775 98.955C89.199 99.291 89.723 99.459 90.347 99.459C91.107 99.459 91.719 99.203 92.183 98.691L92.819 99.435C92.531 99.771 92.171 100.027 91.739 100.203C91.315 100.379 90.839 100.467 90.311 100.467C89.639 100.467 89.043 100.331 88.523 100.059C88.003 99.779 87.599 99.391 87.311 98.895C87.031 98.399 86.891 97.839 86.891 97.215C86.891 96.599 87.027 96.043 87.299 95.547C87.579 95.051 87.959 94.667 88.439 94.395C88.927 94.115 89.475 93.975 90.083 93.975C90.691 93.975 91.231 94.115 91.703 94.395C92.183 94.667 92.555 95.051 92.819 95.547C93.091 96.043 93.227 96.611 93.227 97.251ZM90.083 94.947C89.531 94.947 89.067 95.115 88.691 95.451C88.323 95.787 88.107 96.227 88.043 96.771H92.123C92.059 96.235 91.839 95.799 91.463 95.463C91.095 95.119 90.635 94.947 90.083 94.947ZM55.5327 115.491C54.6847 115.491 53.9207 115.307 53.2407 114.939C52.5607 114.563 52.0247 114.047 51.6327 113.391C51.2487 112.735 51.0567 112.003 51.0567 111.195C51.0567 110.387 51.2487 109.655 51.6327 108.999C52.0247 108.343 52.5607 107.831 53.2407 107.463C53.9207 107.087 54.6847 106.899 55.5327 106.899C56.3727 106.899 57.1327 107.087 57.8127 107.463C58.4927 107.831 59.0247 108.343 59.4087 108.999C59.7927 109.647 59.9847 110.379 59.9847 111.195C59.9847 112.011 59.7927 112.747 59.4087 113.403C59.0247 114.051 58.4927 114.563 57.8127 114.939C57.1327 115.307 56.3727 115.491 55.5327 115.491ZM55.5327 114.423C56.1487 114.423 56.7007 114.283 57.1887 114.003C57.6847 113.723 58.0727 113.339 58.3527 112.851C58.6407 112.355 58.7847 111.803 58.7847 111.195C58.7847 110.587 58.6407 110.039 58.3527 109.551C58.0727 109.055 57.6847 108.667 57.1887 108.387C56.7007 108.107 56.1487 107.967 55.5327 107.967C54.9167 107.967 54.3567 108.107 53.8527 108.387C53.3567 108.667 52.9647 109.055 52.6767 109.551C52.3967 110.039 52.2567 110.587 52.2567 111.195C52.2567 111.803 52.3967 112.355 52.6767 112.851C52.9647 113.339 53.3567 113.723 53.8527 114.003C54.3567 114.283 54.9167 114.423 55.5327 114.423ZM63.9789 107.367C63.2909 107.367 62.9469 107.739 62.9469 108.483V109.035H64.7949V109.983H62.9709V115.395H61.8189V109.983H60.7389V109.035H61.8189V108.471C61.8189 107.839 62.0029 107.339 62.3709 106.971C62.7389 106.603 63.2549 106.419 63.9189 106.419C64.1749 106.419 64.4149 106.451 64.6389 106.515C64.8629 106.579 65.0549 106.671 65.2149 106.791L64.8669 107.667C64.6029 107.467 64.3069 107.367 63.9789 107.367ZM68.2093 107.367C67.5213 107.367 67.1773 107.739 67.1773 108.483V109.035H69.0253V109.983H67.2013V115.395H66.0493V109.983H64.9693V109.035H66.0493V108.471C66.0493 107.839 66.2333 107.339 66.6013 106.971C66.9693 106.603 67.4853 106.419 68.1493 106.419C68.4053 106.419 68.6453 106.451 68.8693 106.515C69.0933 106.579 69.2853 106.671 69.4453 106.791L69.0973 107.667C68.8333 107.467 68.5373 107.367 68.2093 107.367ZM75.766 112.251C75.766 112.339 75.758 112.455 75.742 112.599H70.582C70.654 113.159 70.898 113.611 71.314 113.955C71.738 114.291 72.262 114.459 72.886 114.459C73.646 114.459 74.258 114.203 74.722 113.691L75.358 114.435C75.07 114.771 74.71 115.027 74.278 115.203C73.854 115.379 73.378 115.467 72.85 115.467C72.178 115.467 71.582 115.331 71.062 115.059C70.542 114.779 70.138 114.391 69.85 113.895C69.57 113.399 69.43 112.839 69.43 112.215C69.43 111.599 69.566 111.043 69.838 110.547C70.118 110.051 70.498 109.667 70.978 109.395C71.466 109.115 72.014 108.975 72.622 108.975C73.23 108.975 73.77 109.115 74.242 109.395C74.722 109.667 75.094 110.051 75.358 110.547C75.63 111.043 75.766 111.611 75.766 112.251ZM72.622 109.947C72.07 109.947 71.606 110.115 71.23 110.451C70.862 110.787 70.646 111.227 70.582 111.771H74.662C74.598 111.235 74.378 110.799 74.002 110.463C73.634 110.119 73.174 109.947 72.622 109.947ZM78.4697 110.103C78.6697 109.735 78.9657 109.455 79.3577 109.263C79.7497 109.071 80.2257 108.975 80.7857 108.975V110.091C80.7217 110.083 80.6337 110.079 80.5217 110.079C79.8977 110.079 79.4057 110.267 79.0457 110.643C78.6937 111.011 78.5177 111.539 78.5177 112.227V115.395H77.3657V109.035H78.4697V110.103Z" fill="#4D4837"/>
<path d="M32.7854 57.7132V55.9132H36.8354V55.0132V54.1132H32.7854V52.3132H37.0604C38.0054 47.0482 41.7854 43.0882 48.0854 43.0882C58.0304 43.0882 58.7054 51.9982 58.7054 51.9982H52.6304C52.6304 51.9982 52.4054 47.5882 48.0854 47.5882C45.1604 47.5882 43.6754 49.5682 43.1354 52.3132H49.6604V54.1132H42.9104V55.0132V55.9132H49.6604V57.7132H43.1354C43.6754 60.4582 45.1604 62.4382 48.0854 62.4382C52.4054 62.4382 52.6304 58.0282 52.6304 58.0282H58.7054C58.7054 58.0282 58.0304 66.9382 48.0854 66.9382C41.7854 66.9382 38.0054 62.9782 37.0604 57.7132H32.7854ZM72.3754 41.2632V66.2632H65.6254V49.5132H60.1254V46.5132C67.1254 46.2632 68.3754 41.2632 68.3754 41.2632H72.3754ZM97.8832 41.2632V46.5632H82.5332L81.3832 53.7632H81.5832C81.5832 53.7632 84.1332 50.7632 88.6332 50.7632C96.1332 50.7632 99.6332 56.0132 99.6332 62.0132C99.6332 69.2632 94.8332 74.5132 87.1332 74.5132C79.6832 74.5132 74.3832 70.3132 74.3832 63.8132H81.1332C81.1332 67.4132 83.5332 69.5132 87.1332 69.5132C90.5332 69.5132 92.8832 66.7632 92.8832 62.2632C92.8832 58.0132 90.4832 55.5132 86.3832 55.5132C82.1332 55.5132 79.8832 59.0132 79.8832 59.0132H74.8832L77.7332 41.2632H97.8832Z" fill="#4D4837"/>
<defs>
<filter id="filter0_i_2001_68" x="0.922516" y="0.528809" width="149.943" height="153.943" filterUnits="userSpaceOnUse" color-interpolation-filters="sRGB">
<feFlood flood-opacity="0" result="BackgroundImageFix"/>
<feBlend mode="normal" in="SourceGraphic" in2="BackgroundImageFix" result="shape"/>
<feColorMatrix in="SourceAlpha" type="matrix" values="0 0 0 0 0 0 0 0 0 0 0 0 0 0 0 0 0 0 127 0" result="hardAlpha"/>
<feOffset dy="4"/>
<feGaussianBlur stdDeviation="10.25"/>
<feComposite in2="hardAlpha" operator="arithmetic" k2="-1" k3="1"/>
<feColorMatrix type="matrix" values="0 0 0 0 1 0 0 0 0 0.964812 0 0 0 0 0.837257 0 0 0 1 0"/>
<feBlend mode="normal" in2="shape" result="effect1_innerShadow_2001_68"/>
</filter>
<linearGradient id="paint0_linear_2001_68" x1="67.0513" y1="0.528809" x2="67.0513" y2="150.472" gradientUnits="userSpaceOnUse">
<stop stop-color="#FFF2AF"/>
<stop offset="1" stop-color="#DCC290"/>
</linearGradient>
<radialGradient id="paint1_radial_2001_68" cx="0" cy="0" r="1" gradientUnits="userSpaceOnUse" gradientTransform="translate(80.5659 32.0169) rotate(91.3177) scale(193.478 80.9069)">
<stop stop-color="white"/>
<stop offset="1" stop-color="white" stop-opacity="0"/>
</radialGradient>
<radialGradient id="paint2_radial_2001_68" cx="0" cy="0" r="1" gradientUnits="userSpaceOnUse" gradientTransform="translate(79.1107 0.52882) rotate(90.4081) scale(104.213 52.7601)">
<stop stop-color="white"/>
<stop offset="1" stop-color="white" stop-opacity="0"/>
</radialGradient>
</defs>
</svg>
