<svg width="168" height="11" viewBox="0 0 168 11" fill="none" xmlns="http://www.w3.org/2000/svg">
<path d="M0.646446 6.35355C0.451183 6.15829 0.451183 5.84171 0.646446 5.64645L3.82843 2.46447C4.02369 2.2692 4.34027 2.2692 4.53553 2.46447C4.7308 2.65973 4.7308 2.97631 4.53553 3.17157L1.70711 6L4.53553 8.82843C4.7308 9.02369 4.7308 9.34027 4.53553 9.53553C4.34027 9.7308 4.02369 9.7308 3.82843 9.53553L0.646446 6.35355ZM45 6.5H1V5.5H45V6.5Z" fill="#707070"/>
<path d="M167.354 6.35355C167.549 6.15829 167.549 5.84171 167.354 5.64645L164.172 2.46447C163.976 2.2692 163.66 2.2692 163.464 2.46447C163.269 2.65973 163.269 2.97631 163.464 3.17157L166.293 6L163.464 8.82843C163.269 9.02369 163.269 9.34027 163.464 9.53553C163.66 9.7308 163.976 9.7308 164.172 9.53553L167.354 6.35355ZM123 6.5H167V5.5H123V6.5Z" fill="#707070"/>
<path d="M61.5592 10.112C60.8219 10.112 60.1079 10 59.4172 9.776C58.7359 9.54267 58.1992 9.244 57.8072 8.88L58.3252 7.788C58.6985 8.124 59.1745 8.39933 59.7532 8.614C60.3412 8.81933 60.9432 8.922 61.5592 8.922C62.3712 8.922 62.9779 8.78667 63.3792 8.516C63.7805 8.236 63.9812 7.86733 63.9812 7.41C63.9812 7.074 63.8692 6.80333 63.6452 6.598C63.4305 6.38333 63.1599 6.22 62.8332 6.108C62.5159 5.996 62.0632 5.87 61.4752 5.73C60.7379 5.55267 60.1405 5.37533 59.6832 5.198C59.2352 5.02067 58.8479 4.75 58.5212 4.386C58.2039 4.01267 58.0452 3.51333 58.0452 2.888C58.0452 2.36533 58.1805 1.894 58.4512 1.474C58.7312 1.054 59.1512 0.717999 59.7112 0.465999C60.2712 0.214 60.9665 0.0879999 61.7972 0.0879999C62.3759 0.0879999 62.9452 0.162666 63.5052 0.312C64.0652 0.461333 64.5459 0.675999 64.9472 0.956L64.4852 2.076C64.0745 1.81467 63.6359 1.61867 63.1692 1.488C62.7025 1.348 62.2452 1.278 61.7972 1.278C61.0039 1.278 60.4065 1.42267 60.0052 1.712C59.6132 2.00133 59.4172 2.37467 59.4172 2.832C59.4172 3.168 59.5292 3.44333 59.7532 3.658C59.9772 3.86333 60.2525 4.02667 60.5792 4.148C60.9152 4.26 61.3679 4.38133 61.9372 4.512C62.6745 4.68933 63.2672 4.86667 63.7152 5.044C64.1632 5.22133 64.5459 5.492 64.8632 5.856C65.1899 6.22 65.3532 6.71 65.3532 7.326C65.3532 7.83933 65.2132 8.31067 64.9332 8.74C64.6532 9.16 64.2285 9.496 63.6592 9.748C63.0899 9.99067 62.3899 10.112 61.5592 10.112ZM82.6445 0.199999L79.3685 10H77.8985L75.2245 2.174L72.5505 10H71.0525L67.7765 0.199999H69.2185L71.8645 8.166L74.6225 0.199999H75.9105L78.6125 8.208L81.3145 0.199999H82.6445ZM85.7571 0.199999H87.1571V10H85.7571V0.199999ZM95.3131 0.199999C96.5824 0.199999 97.5811 0.503333 98.3091 1.11C99.0371 1.71667 99.4011 2.552 99.4011 3.616C99.4011 4.68 99.0371 5.51533 98.3091 6.122C97.5811 6.72867 96.5824 7.032 95.3131 7.032H92.8911V10H91.4911V0.199999H95.3131ZM95.2711 5.814C96.1578 5.814 96.8344 5.62733 97.3011 5.254C97.7678 4.87133 98.0011 4.32533 98.0011 3.616C98.0011 2.90667 97.7678 2.36533 97.3011 1.992C96.8344 1.60933 96.1578 1.418 95.2711 1.418H92.8911V5.814H95.2711ZM109.97 8.782V10H102.858V0.199999H109.774V1.418H104.258V4.428H109.172V5.618H104.258V8.782H109.97Z" fill="#707070"/>
</svg>
