<svg width="25" height="25" viewBox="0 0 25 25" fill="none" xmlns="http://www.w3.org/2000/svg">
<g clip-path="url(#clip0_48_33)">
<path fill-rule="evenodd" clip-rule="evenodd" d="M12.5 25C19.4036 25 25 19.4036 25 12.5C25 5.59645 19.4036 0 12.5 0C5.59645 0 0 5.59645 0 12.5C0 19.4036 5.59645 25 12.5 25ZM9.82143 16.7411C9.20504 16.7411 8.70536 17.2407 8.70536 17.8571C8.70536 18.4736 9.20504 18.9732 9.82143 18.9732H12.5H15.1786C15.795 18.9732 16.2946 18.4736 16.2946 17.8571C16.2946 17.2407 15.795 16.7411 15.1786 16.7411H13.6161V11.6071C13.6161 10.9908 13.1164 10.4911 12.5 10.4911H10.7143C10.0979 10.4911 9.59821 10.9908 9.59821 11.6071C9.59821 12.2235 10.0979 12.7232 10.7143 12.7232H11.3839V16.7411H9.82143ZM14.2857 7.14286C14.2857 8.12907 13.4862 8.92857 12.5 8.92857C11.5138 8.92857 10.7143 8.12907 10.7143 7.14286C10.7143 6.15664 11.5138 5.35714 12.5 5.35714C13.4862 5.35714 14.2857 6.15664 14.2857 7.14286Z" fill="white"/>
</g>
<defs>
<clipPath id="clip0_48_33">
<rect width="25" height="25" fill="white"/>
</clipPath>
</defs>
</svg>
