<svg width="19" height="19" viewBox="0 0 19 19" fill="none" xmlns="http://www.w3.org/2000/svg">
<g clip-path="url(#clip0_48_39)">
<path d="M15.2065 4.71193V4.71252C15.2065 5.29827 14.7315 5.77264 14.1464 5.77264C13.5612 5.77264 13.0862 5.29768 13.0862 4.71252C13.0862 4.12677 13.5612 3.65239 14.1464 3.65239C14.7315 3.65298 15.2059 4.12677 15.2065 4.71193ZM9.42854 12.3744C7.80152 12.3744 6.4827 11.0556 6.4827 9.42857C6.4827 7.80155 7.80152 6.48273 9.42854 6.48273C11.0556 6.48273 12.3744 7.80155 12.3744 9.42857C12.3744 11.055 11.0561 12.3738 9.42972 12.3738H9.42913L9.42854 12.3744ZM9.42854 4.89107C6.92231 4.89107 4.89104 6.92293 4.89104 9.42857C4.89104 11.9342 6.9229 13.9661 9.42854 13.9661C11.9348 13.9661 13.966 11.9342 13.966 9.42857C13.966 9.42857 13.966 9.42857 13.966 9.42798C13.966 6.92234 11.9348 4.89048 9.42854 4.89048C9.42854 4.89048 9.42854 4.89048 9.42795 4.89048L9.42854 4.89107ZM9.42854 2.18272C11.7875 2.18272 12.0685 2.1945 13.0002 2.23516C13.5913 2.24223 14.1534 2.3542 14.6738 2.5522L14.6402 2.541C15.4145 2.84272 16.0156 3.44379 16.3108 4.19807L16.3179 4.21811C16.5041 4.70486 16.6149 5.26763 16.622 5.85514V5.85809C16.6638 6.79034 16.6732 7.07025 16.6732 9.42975C16.6732 11.7893 16.662 12.0698 16.619 13.0014C16.6078 13.5931 16.4953 14.1552 16.2978 14.6756L16.309 14.6414C16.157 15.0398 15.9319 15.3792 15.6473 15.6585L15.6467 15.6591C15.368 15.9443 15.0285 16.1694 14.6496 16.3126L14.6308 16.3191C14.1422 16.5053 13.5777 16.6161 12.9878 16.6232H12.9849C12.0467 16.665 11.7704 16.6744 9.40674 16.6744C7.04193 16.6744 6.76615 16.6632 5.8286 16.6202C5.2346 16.609 4.67006 16.4965 4.14736 16.2991L4.18213 16.3103C3.78377 16.1606 3.44435 15.9349 3.16738 15.6491L3.16679 15.6485C2.87863 15.3715 2.65235 15.0315 2.51033 14.6508L2.50444 14.6326C2.31881 14.1446 2.20626 13.5807 2.19506 12.9914V12.9867C2.16206 12.0586 2.15027 11.7722 2.15027 9.41973C2.15027 7.06613 2.16206 6.77914 2.19506 5.83982C2.20626 5.24641 2.31822 4.68247 2.51563 4.16036L2.50444 4.19513C2.64999 3.795 2.87686 3.45439 3.1662 3.1792L3.16738 3.17802C3.44317 2.88809 3.78318 2.66239 4.16445 2.52273L4.18272 2.51684C4.6677 2.32945 5.22811 2.21689 5.81386 2.20688H5.81799C6.75672 2.17388 7.0331 2.16268 9.39613 2.16268L9.42854 2.18272ZM9.42854 0.591644C7.02779 0.591644 6.72844 0.602841 5.78558 0.64468C5.01067 0.66118 4.27583 0.810859 3.59579 1.07073L3.64058 1.056C3.02772 1.28995 2.50561 1.63704 2.07544 2.07429L2.07485 2.07488C1.63583 2.50505 1.28933 3.02775 1.0654 3.61114L1.05538 3.64061C0.810239 4.27586 0.66056 5.01129 0.644649 5.77854V5.78561C0.600453 6.72847 0.591614 7.02782 0.591614 9.42857C0.591614 11.8293 0.60281 12.1287 0.644649 13.0715C0.66115 13.8464 0.810828 14.5813 1.0707 15.2613L1.05597 15.2165C1.52504 16.4075 2.44963 17.3321 3.60993 17.7905L3.64058 17.8011C4.27583 18.0457 5.01126 18.1954 5.77851 18.2119H5.78558C6.72844 18.2561 7.02779 18.2649 9.42854 18.2649C11.8293 18.2649 12.1286 18.2537 13.0715 18.2119C13.8464 18.1948 14.5813 18.0457 15.2613 17.7858L15.2165 17.8011C16.4075 17.3321 17.332 16.4075 17.7905 15.2472L17.8011 15.2165C18.0463 14.5813 18.1953 13.8459 18.2118 13.0786V13.0715C18.256 12.1287 18.2649 11.8293 18.2649 9.42857C18.2649 7.02782 18.2537 6.72847 18.2118 5.78561C18.1948 5.0107 18.0457 4.27586 17.7858 3.59582L17.8011 3.64061C17.5666 3.02775 17.2201 2.50564 16.7822 2.07547L16.7816 2.07488C16.3515 1.63586 15.8288 1.28936 15.2454 1.06543L15.2159 1.05541C14.5807 0.810269 13.8452 0.660591 13.078 0.64468H13.0709C12.1281 0.600484 11.8287 0.591644 9.42795 0.591644H9.42854Z" fill="white"/>
</g>
<defs>
<clipPath id="clip0_48_39">
<rect width="18.8571" height="18.8571" fill="white"/>
</clipPath>
</defs>
</svg>
